# xmcd CD database file
#
# Track frame offsets:
#	150
#	3948
#	27921
#	53619
#	70617
#	82890
#	103563
#	125286
#	137859
#
# Disc length: 2068 seconds
#
# Revision: 0
# Processed by: cddbd v1.5.2PL0 Copyright (c) Steve Scherf et al.
# Submitted via: CDex 1.70beta3
#
DISCID=64081209
DTITLE=CALMERA - MIX MODERN COVERS!
DYEAR=2012
DGENRE=Jazz
TTITLE0=Somebody Stole My Gal
TTITLE1=エクスタシー
TTITLE2=Moanin'
TTITLE3=Mambo Inn
TTITLE4=Choo Choo Ch'Boogie feat.akiko
TTITLE5=A Night In Tunisia
TTITLE6=Nica's Dream
TTITLE7=The Great Escape March
TTITLE8=Tristeza
EXTD=YEAR: 2012
EXTT0=
EXTT1=
EXTT2=
EXTT3=
EXTT4=
EXTT5=
EXTT6=
EXTT7=
EXTT8=
PLAYORDER=
